<svg width="565" height="345" viewBox="0 0 565 345" fill="none" xmlns="http://www.w3.org/2000/svg">
<path d="M244.575 217.163C245.58 217.163 246.394 216.351 246.394 215.351C246.394 214.35 245.58 213.539 244.575 213.539C243.57 213.539 242.755 214.35 242.755 215.351C242.755 216.351 243.57 217.163 244.575 217.163Z" fill="#383A48"/>
<path d="M244.575 233.038C245.58 233.038 246.394 232.226 246.394 231.226C246.394 230.225 245.58 229.414 244.575 229.414C243.57 229.414 242.755 230.225 242.755 231.226C242.755 232.226 243.57 233.038 244.575 233.038Z" fill="#383A48"/>
<path d="M244.575 248.912C245.58 248.912 246.394 248.1 246.394 247.1C246.394 246.099 245.58 245.288 244.575 245.288C243.57 245.288 242.755 246.099 242.755 247.1C242.755 248.1 243.57 248.912 244.575 248.912Z" fill="#383A48"/>
<path d="M244.575 264.786C245.58 264.786 246.394 263.975 246.394 262.974C246.394 261.973 245.58 261.162 244.575 261.162C243.57 261.162 242.755 261.973 242.755 262.974C242.755 263.975 243.57 264.786 244.575 264.786Z" fill="#383A48"/>
<path d="M244.575 280.661C245.58 280.661 246.394 279.85 246.394 278.849C246.394 277.848 245.58 277.037 244.575 277.037C243.57 277.037 242.755 277.848 242.755 278.849C242.755 279.85 243.57 280.661 244.575 280.661Z" fill="#383A48"/>
<path d="M244.575 296.535C245.58 296.535 246.394 295.724 246.394 294.723C246.394 293.723 245.58 292.912 244.575 292.912C243.57 292.912 242.755 293.723 242.755 294.723C242.755 295.724 243.57 296.535 244.575 296.535Z" fill="#383A48"/>
<path d="M244.575 312.41C245.58 312.41 246.394 311.598 246.394 310.598C246.394 309.597 245.58 308.786 244.575 308.786C243.57 308.786 242.755 309.597 242.755 310.598C242.755 311.598 243.57 312.41 244.575 312.41Z" fill="#383A48"/>
<path d="M244.575 328.327C245.58 328.327 246.394 327.516 246.394 326.515C246.394 325.515 245.58 324.704 244.575 324.704C243.57 324.704 242.755 325.515 242.755 326.515C242.755 327.516 243.57 328.327 244.575 328.327Z" fill="#383A48"/>
<path d="M387.246 344.159C377.541 344.159 368.313 340.104 360.428 332.512C352.542 340.104 343.314 344.159 333.609 344.159C320.351 344.159 307.917 336.48 298.688 322.504C289.59 308.786 284.607 290.626 284.607 271.343C284.607 270.135 285.561 269.186 286.774 269.186C287.987 269.186 288.94 270.135 288.94 271.343C288.94 309.131 309 339.888 333.609 339.888C342.361 339.888 350.506 336.049 357.395 329.406C355.618 327.378 353.885 325.178 352.282 322.763C343.184 309.175 338.201 291.057 338.201 271.818C338.201 245.936 349.726 229.932 360.384 229.932C371.086 229.932 382.61 245.936 382.61 271.818C382.61 291.1 377.628 309.175 368.529 322.763C366.926 325.178 365.193 327.378 363.417 329.406C370.306 336.049 378.494 339.888 387.203 339.888C388.416 339.888 389.369 340.837 389.369 342.045C389.369 343.253 388.459 344.159 387.246 344.159ZM360.428 234.159C351.979 234.159 342.577 249.602 342.577 271.732C342.577 293.947 349.596 313.747 360.428 326.171C371.259 313.747 378.278 293.947 378.278 271.732C378.321 249.602 368.876 234.159 360.428 234.159Z" fill="#120D3D"/>
<path d="M494.521 344.158C484.816 344.158 475.588 340.104 467.703 332.511C459.817 340.104 450.589 344.158 440.884 344.158C439.671 344.158 438.718 343.209 438.718 342.002C438.718 340.794 439.671 339.845 440.884 339.845C449.636 339.845 457.781 336.006 464.67 329.362C462.894 327.335 461.161 325.135 459.557 322.719C450.459 309.131 445.477 291.013 445.477 271.774C445.477 245.892 457.001 229.888 467.703 229.888C478.361 229.888 489.885 245.892 489.885 271.774C489.885 291.057 484.903 309.131 475.805 322.719C474.202 325.135 472.469 327.335 470.692 329.362C477.581 336.006 485.77 339.845 494.478 339.845C519.13 339.845 539.147 309.088 539.147 271.3C539.147 270.092 540.1 269.143 541.313 269.143C542.526 269.143 543.479 270.092 543.479 271.3C543.479 290.582 538.497 308.786 529.399 322.46C520.17 336.437 507.779 344.158 494.521 344.158ZM467.703 234.159C459.254 234.159 449.809 249.602 449.809 271.731C449.809 293.947 456.828 313.747 467.659 326.17C478.491 313.747 485.51 293.947 485.51 271.731C485.51 260.99 483.343 251.112 479.357 243.908C476.108 237.825 471.732 234.159 467.703 234.159Z" fill="#120D3D"/>
<path d="M440.884 344.158C431.179 344.158 421.95 340.104 414.065 332.511C406.18 340.104 396.951 344.158 387.246 344.158C386.033 344.158 385.08 343.209 385.08 342.002C385.08 340.794 386.033 339.845 387.246 339.845C395.998 339.845 404.143 336.006 411.032 329.362C409.256 327.335 407.523 325.135 405.92 322.719C396.821 309.131 391.839 291.013 391.839 271.774C391.839 245.892 403.364 229.888 414.022 229.888C424.723 229.888 436.248 245.892 436.248 271.774C436.248 291.057 431.265 309.131 422.167 322.719C420.564 325.135 418.831 327.335 417.055 329.362C423.943 336.006 432.132 339.845 440.84 339.845C442.054 339.845 443.007 340.794 443.007 342.002C443.007 343.209 442.097 344.158 440.884 344.158ZM414.022 234.159C405.573 234.159 396.172 249.602 396.172 271.731C396.172 293.947 403.19 313.747 414.022 326.17C424.853 313.747 431.872 293.947 431.872 271.731C431.959 249.602 422.514 234.159 414.022 234.159Z" fill="#120D3D"/>
<path d="M252.242 203.316H111.13V342.002H252.242V203.316Z" fill="#E8EDF9"/>
<path d="M252.242 344.159H111.13C109.917 344.159 108.964 343.21 108.964 342.002V203.316C108.964 202.108 109.917 201.159 111.13 201.159H252.242C253.455 201.159 254.409 202.108 254.409 203.316V342.002C254.409 343.167 253.412 344.159 252.242 344.159ZM113.296 339.845H250.076V205.473H113.296V339.845Z" fill="#120D3D"/>
<path d="M111.131 203.316L72.7441 136.669H181.665L252.243 203.316H111.131Z" fill="#4C63F6"/>
<path d="M252.243 205.473H111.131C110.351 205.473 109.658 205.041 109.268 204.394L70.8813 137.747C70.4914 137.1 70.4914 136.238 70.8813 135.591C71.2712 134.944 71.9645 134.512 72.7443 134.512H181.709C182.272 134.512 182.792 134.728 183.182 135.116L253.759 201.763C254.409 202.367 254.626 203.316 254.279 204.136C253.933 204.912 253.11 205.473 252.243 205.473ZM112.387 201.159H246.827L180.799 138.826H76.4703L112.387 201.159Z" fill="#120D3D"/>
<path d="M143.278 203.316H2.16602V342.002H143.278V203.316Z" fill="#E8EDF9"/>
<path d="M143.278 344.159H2.16629C0.953167 344.159 0 343.21 0 342.002V203.316C0 202.108 0.953167 201.159 2.16629 201.159H143.278C144.491 201.159 145.445 202.108 145.445 203.316V342.002C145.445 343.167 144.491 344.159 143.278 344.159ZM4.33258 339.845H141.112V205.473H4.33258V339.845Z" fill="#120D3D"/>
<path d="M2.16602 203.316L72.7437 136.669L143.278 203.316H2.16602Z" fill="#4C63F6"/>
<path d="M143.278 205.473H2.16575C1.29924 205.473 0.476044 204.955 0.172763 204.135C-0.173843 203.316 0.0427914 202.367 0.692678 201.763L71.2704 135.116C72.0936 134.34 73.4366 134.34 74.2598 135.116L144.838 201.763C145.487 202.367 145.704 203.316 145.357 204.135C144.968 204.912 144.188 205.473 143.278 205.473ZM7.58147 201.159H137.819L72.7434 139.645L7.58147 201.159Z" fill="#120D3D"/>
<path d="M95.9674 253.743H49.4788C48.2657 253.743 47.3125 254.692 47.3125 255.9V341.958C47.3125 343.166 48.2657 344.115 49.4788 344.115H96.0107C97.2238 344.115 98.177 343.166 98.177 341.958V255.9C98.1337 254.735 97.1805 253.743 95.9674 253.743Z" fill="#120D3D"/>
<path d="M504.494 180.726C537.91 147.455 537.91 93.5126 504.494 60.2419C471.078 26.9712 416.899 26.9712 383.483 60.2419C350.067 93.5126 350.067 147.455 383.483 180.726C416.899 213.997 471.078 213.997 504.494 180.726Z" fill="#120D3D"/>
<path d="M414.627 203.015C460.402 203.015 497.51 166.069 497.51 120.493C497.51 74.9182 460.402 37.9722 414.627 37.9722C368.853 37.9722 331.745 74.9182 331.745 120.493C331.745 166.069 368.853 203.015 414.627 203.015Z" fill="#E8EDF9"/>
<path d="M414.629 205.171C367.75 205.171 329.58 167.21 329.58 120.493C329.58 73.8183 367.707 35.8145 414.629 35.8145C461.55 35.8145 499.677 73.7751 499.677 120.493C499.677 167.21 461.507 205.171 414.629 205.171ZM414.629 40.1713C370.133 40.1713 333.913 76.234 333.913 120.536C333.913 164.838 370.133 200.9 414.629 200.9C459.124 200.9 495.345 164.838 495.345 120.536C495.345 76.234 459.124 40.1713 414.629 40.1713Z" fill="#120D3D"/>
<path d="M449.852 114.238C448.639 114.238 447.686 113.289 447.686 112.082C447.686 108.588 444.826 105.74 441.317 105.74C437.807 105.74 434.948 108.588 434.948 112.082C434.948 113.289 433.995 114.238 432.782 114.238C431.568 114.238 430.615 113.289 430.615 112.082C430.615 106.215 435.424 101.427 441.317 101.427C447.209 101.427 452.018 106.215 452.018 112.082C452.018 113.289 451.065 114.238 449.852 114.238Z" fill="#120D3D"/>
<path d="M396.517 114.238C395.304 114.238 394.351 113.289 394.351 112.082C394.351 108.588 391.491 105.74 387.982 105.74C384.472 105.74 381.613 108.588 381.613 112.082C381.613 113.289 380.66 114.238 379.447 114.238C378.233 114.238 377.28 113.289 377.28 112.082C377.28 106.215 382.089 101.427 387.982 101.427C393.874 101.427 398.683 106.215 398.683 112.082C398.683 113.289 397.687 114.238 396.517 114.238Z" fill="#120D3D"/>
<path d="M414.628 151.164C402.41 151.164 391.189 144.003 386.076 132.917C385.556 131.839 386.076 130.544 387.159 130.07C388.242 129.552 389.542 130.07 390.019 131.148C394.395 140.682 404.056 146.85 414.628 146.85C425.156 146.85 434.818 140.682 439.237 131.148C439.757 130.07 441.013 129.595 442.096 130.07C443.18 130.588 443.656 131.839 443.18 132.917C438.067 144.003 426.846 151.164 414.628 151.164Z" fill="#120D3D"/>
</svg>
