<svg width="32" height="32" viewBox="0 0 32 32" fill="none" xmlns="http://www.w3.org/2000/svg">
<path fill-rule="evenodd" clip-rule="evenodd" d="M10.5021 2.7465C11.9243 2.68132 12.3791 2.6665 15.9998 2.6665C19.6206 2.6665 20.0754 2.68132 21.4976 2.7465C22.9169 2.81169 23.8858 3.03687 24.7332 3.36576C25.6102 3.7065 26.3539 4.1628 27.0947 4.90502C27.8369 5.64576 28.2932 6.38947 28.6339 7.2665C28.9628 8.11391 29.188 9.0828 29.2532 10.5021C29.3184 11.9243 29.3332 12.3791 29.3332 15.9998C29.3332 19.6206 29.3184 20.0754 29.2532 21.4976C29.188 22.9169 28.9628 23.8858 28.6339 24.7332C28.2932 25.6102 27.8369 26.3539 27.0947 27.0947C26.3539 27.8369 25.6102 28.2932 24.7332 28.6339C23.8858 28.9628 22.9169 29.188 21.4976 29.2532C20.0754 29.3184 19.6206 29.3332 15.9998 29.3332C12.3791 29.3332 11.9243 29.3184 10.5021 29.2532C9.0828 29.188 8.11391 28.9628 7.2665 28.6339C6.38947 28.2932 5.64576 27.8369 4.90502 27.0947C4.1628 26.3539 3.7065 25.6102 3.36576 24.7332C3.03687 23.8858 2.81169 22.9169 2.7465 21.4976C2.68132 20.0754 2.6665 19.6206 2.6665 15.9998C2.6665 12.3791 2.68132 11.9243 2.7465 10.5021C2.81169 9.0828 3.03687 8.11391 3.36576 7.2665C3.7065 6.38947 4.1628 5.64576 4.90502 4.90502C5.64576 4.1628 6.38947 3.7065 7.2665 3.36576C8.11391 3.03687 9.0828 2.81169 10.5021 2.7465ZM21.388 5.1465C19.9821 5.0828 19.5598 5.06947 15.9998 5.06947C12.4398 5.06947 12.0176 5.0828 10.6117 5.1465C9.31243 5.20576 8.60576 5.42354 8.13613 5.60576C7.51391 5.84724 7.06947 6.13613 6.6028 6.6028C6.13613 7.06947 5.84724 7.51391 5.60576 8.13613C5.42354 8.60576 5.20576 9.31243 5.1465 10.6117C5.0828 12.0176 5.06947 12.4398 5.06947 15.9998C5.06947 19.5598 5.0828 19.9821 5.1465 21.388C5.20576 22.6872 5.42354 23.3939 5.60576 23.8635C5.84724 24.4858 6.13613 24.9302 6.6028 25.3969C7.06947 25.8635 7.51391 26.1524 8.13613 26.3939C8.60576 26.5761 9.31243 26.7939 10.6117 26.8532C12.0176 26.9169 12.4398 26.9302 15.9998 26.9302C19.5598 26.9302 19.9821 26.9169 21.388 26.8532C22.6872 26.7939 23.3939 26.5761 23.8635 26.3939C24.4858 26.1524 24.9302 25.8635 25.3969 25.3969C25.8635 24.9302 26.1524 24.4858 26.3939 23.8635C26.5761 23.3939 26.7939 22.6872 26.8532 21.388C26.9169 19.9821 26.9302 19.5598 26.9302 15.9998C26.9302 12.4398 26.9169 12.0176 26.8532 10.6117C26.7939 9.31243 26.5761 8.60576 26.3939 8.13613C26.1524 7.51391 25.8635 7.06947 25.3969 6.6028C24.9302 6.13613 24.4858 5.84724 23.8635 5.60576C23.3939 5.42354 22.6872 5.20576 21.388 5.1465ZM9.15243 15.9998C9.15243 12.2191 12.2191 9.15243 15.9998 9.15243C19.7806 9.15243 22.8472 12.2191 22.8472 15.9998C22.8472 19.7806 19.7806 22.8472 15.9998 22.8472C12.2191 22.8472 9.15243 19.7806 9.15243 15.9998ZM11.5554 15.9998C11.5554 18.4546 13.545 20.4443 15.9998 20.4443C18.4546 20.4443 20.4443 18.4546 20.4443 15.9998C20.4443 13.545 18.4546 11.5554 15.9998 11.5554C13.545 11.5554 11.5554 13.545 11.5554 15.9998ZM24.7172 8.8825C24.7172 9.76547 24.0001 10.4825 23.1172 10.4825C22.2342 10.4825 21.5172 9.76547 21.5172 8.8825C21.5172 7.99954 22.2342 7.2825 23.1172 7.2825C24.0001 7.2825 24.7172 7.99954 24.7172 8.8825Z" fill="white"/>
</svg>
