<svg width="46" height="46" viewBox="0 0 46 46" fill="none" xmlns="http://www.w3.org/2000/svg">
<path fill-rule="evenodd" clip-rule="evenodd" d="M39.3037 20.9323C39.9046 20.1164 40.379 19.4628 40.7311 18.9694C43.2632 15.4274 44.3595 13.1652 44.0243 12.1785L43.8915 11.9466C43.805 11.8095 43.5773 11.6809 43.2126 11.5671C42.8457 11.4511 42.3777 11.4321 41.8063 11.508L35.4834 11.5544C35.3379 11.5396 35.1903 11.5439 35.0449 11.5671C34.8973 11.5902 34.8024 11.6134 34.7581 11.6345C34.716 11.6598 34.6801 11.6788 34.6485 11.6936L34.5621 11.7631C34.4883 11.8074 34.4082 11.8896 34.3217 12.0056C34.2311 12.1194 34.1594 12.2544 34.1003 12.4104C33.413 14.2721 32.6287 16.0051 31.7516 17.6053C31.2098 18.5604 30.7122 19.389 30.2589 20.089C29.8056 20.791 29.424 21.3055 29.1162 21.6365C28.8105 21.9675 28.5322 22.2332 28.2834 22.4334C28.0325 22.6337 27.8428 22.7181 27.7121 22.6886C27.5813 22.6569 27.4548 22.6274 27.3389 22.5937C27.1344 22.4566 26.9699 22.269 26.8455 22.0286C26.719 21.7925 26.6368 21.491 26.5925 21.1284C26.5483 20.7679 26.523 20.4537 26.5145 20.1923C26.5082 19.9308 26.5124 19.5619 26.5272 19.0833C26.5419 18.6068 26.5483 18.2842 26.5483 18.1135C26.5483 17.5294 26.5588 16.8927 26.582 16.2075C26.6031 15.5244 26.622 14.9805 26.6368 14.5799C26.6516 14.1814 26.6579 13.7555 26.6579 13.3107C26.6579 12.8637 26.6326 12.5137 26.582 12.2586C26.5293 12.0056 26.4534 11.7589 26.3501 11.5207C26.2468 11.2824 26.0971 11.0969 25.901 10.9662C25.7028 10.8355 25.4561 10.73 25.1652 10.6541C24.3893 10.4686 23.4005 10.3695 22.2009 10.3526C19.479 10.3231 17.7291 10.5087 16.9553 10.9071C16.6475 11.0779 16.3692 11.3098 16.1204 11.6008C15.8569 11.9402 15.8189 12.1258 16.0087 12.1553C16.8899 12.2944 17.5098 12.6254 17.8766 13.1483L18.0074 13.4245C18.1107 13.6269 18.2119 13.9811 18.3152 14.4892C18.4164 14.9952 18.4839 15.5581 18.5134 16.1738C18.5872 17.2996 18.5872 18.261 18.5134 19.0622C18.4396 19.8613 18.3721 20.4853 18.3046 20.9323C18.2372 21.3772 18.1402 21.7398 18.0095 22.016C17.8766 22.2964 17.7881 22.4651 17.7438 22.5262C17.6995 22.5874 17.6637 22.6253 17.6342 22.6422C17.4444 22.7181 17.2463 22.756 17.0417 22.756C16.8372 22.756 16.5885 22.6485 16.2954 22.4313C16.0023 22.2184 15.6987 21.9211 15.3846 21.5437C15.0704 21.1663 14.7141 20.6392 14.3199 19.9604C13.9256 19.2836 13.5145 18.4824 13.0907 17.559L12.7386 16.8885C12.5215 16.4584 12.22 15.8322 11.8405 15.0079C11.4589 14.1835 11.1215 13.3866 10.8306 12.617C10.7125 12.2944 10.5354 12.0478 10.3035 11.877L10.1917 11.8074C10.1201 11.7463 10.002 11.6809 9.84176 11.6134C9.68153 11.5418 9.51286 11.4933 9.33576 11.4616L3.32066 11.508C2.70502 11.508 2.28968 11.6556 2.0683 11.9466L1.98186 12.0857C1.93759 12.1637 1.9165 12.286 1.9165 12.4547C1.9165 12.6254 1.96078 12.8321 2.04933 13.0787C2.9264 15.2503 3.88148 17.3439 4.91246 19.3616C5.94554 21.3772 6.84159 23.0027 7.6027 24.234C8.36381 25.4674 9.13757 26.629 9.93031 27.7233C10.7209 28.8175 11.2438 29.5154 11.4989 29.8232C11.7561 30.1331 11.9564 30.3629 12.1019 30.5168L12.6522 31.0734C13.0022 31.4424 13.5187 31.8851 14.1997 32.3996C14.8786 32.9161 15.6334 33.4242 16.462 33.9239C17.2863 34.4257 18.2498 34.8326 19.3483 35.1489C20.4446 35.4651 21.5135 35.5916 22.5529 35.5305H25.0766C25.5911 35.4841 25.979 35.3154 26.2404 35.0224L26.329 34.9064C26.388 34.8157 26.4428 34.6724 26.4934 34.4805C26.544 34.2865 26.5714 34.0757 26.5714 33.8459C26.5567 33.1839 26.6031 32.5851 26.7127 32.0538C26.8244 31.5225 26.9467 31.124 27.0859 30.8521C27.225 30.5843 27.3832 30.3566 27.5603 30.1711C27.7353 29.9855 27.8575 29.8759 27.9334 29.8379C28.0051 29.8 28.0642 29.7726 28.1084 29.7557C28.4584 29.6334 28.8717 29.7515 29.3481 30.1141C29.8246 30.4768 30.2716 30.9216 30.6869 31.4529C31.1044 31.9863 31.6062 32.5809 32.1923 33.2429C32.7763 33.907 33.2886 34.3983 33.7272 34.723L34.1678 34.9992C34.4588 35.1847 34.8404 35.3534 35.3105 35.5073C35.7765 35.6612 36.1876 35.7012 36.5397 35.6232L42.1605 35.5305C42.715 35.5305 43.1472 35.4335 43.455 35.2416C43.7608 35.0498 43.9442 34.8368 44.0032 34.607C44.0622 34.3751 44.0644 34.1158 44.0138 33.8206C43.9632 33.5296 43.9104 33.3251 43.862 33.2113C43.8092 33.0953 43.7608 32.9983 43.7165 32.9203C42.987 31.5373 41.5871 29.8337 39.523 27.8182L39.4787 27.7718L39.4576 27.7465L39.4366 27.7254H39.4134C38.4773 26.7851 37.8848 26.1547 37.636 25.83C37.1827 25.2165 37.0794 24.5903 37.3303 23.9599C37.5032 23.4813 38.161 22.4714 39.3037 20.9323Z" fill="white"/>
</svg>
